<svg width="205" height="102" viewBox="0 0 205 102" fill="none" xmlns="http://www.w3.org/2000/svg">
<path d="M4.17614 43.3807C4.08333 40.7557 4.36837 38.5085 5.03125 36.6392C5.69413 34.7699 6.7017 33.3381 8.05398 32.3438C9.40625 31.3494 11.0568 30.8523 13.0057 30.8523C14.2121 30.8523 15.3854 31.0975 16.5256 31.5881C17.6657 32.0786 18.965 32.9669 20.4233 34.2528C21.1259 34.8627 21.7292 35.3466 22.233 35.7045C22.7367 36.0625 23.3333 36.2415 24.0227 36.2415C24.8977 36.2415 25.6335 35.8902 26.2301 35.1875C26.8267 34.4716 27.0985 33.3116 27.0455 31.7074H34.2642C34.3703 34.3191 34.0786 36.5597 33.3892 38.429C32.6998 40.2983 31.6723 41.7367 30.3068 42.7443C28.9545 43.7386 27.3305 44.2358 25.4347 44.2358C24.1354 44.2358 22.9025 43.9706 21.7358 43.4403C20.5824 42.91 19.3163 42.0417 17.9375 40.8352C17.1686 40.1458 16.5521 39.642 16.0881 39.3239C15.6373 39.0057 15.0805 38.8466 14.4176 38.8466C13.5294 38.8466 12.7936 39.1979 12.2102 39.9006C11.6269 40.59 11.3551 41.75 11.3949 43.3807H4.17614Z" fill="white"/>
<path d="M5.17614 60.3807C5.08333 57.7557 5.36837 55.5085 6.03125 53.6392C6.69413 51.7699 7.7017 50.3381 9.05398 49.3438C10.4063 48.3494 12.0568 47.8523 14.0057 47.8523C15.2121 47.8523 16.3854 48.0975 17.5256 48.5881C18.6657 49.0786 19.965 49.9669 21.4233 51.2528C22.1259 51.8627 22.7292 52.3466 23.233 52.7045C23.7367 53.0625 24.3333 53.2415 25.0227 53.2415C25.8977 53.2415 26.6335 52.8902 27.2301 52.1875C27.8267 51.4716 28.0985 50.3116 28.0455 48.7074H35.2642C35.3703 51.3191 35.0786 53.5597 34.3892 55.429C33.6998 57.2983 32.6723 58.7367 31.3068 59.7443C29.9545 60.7386 28.3305 61.2358 26.4347 61.2358C25.1354 61.2358 23.9025 60.9706 22.7358 60.4403C21.5824 59.91 20.3163 59.0417 18.9375 57.8352C18.1686 57.1458 17.5521 56.642 17.0881 56.3239C16.6373 56.0057 16.0805 55.8466 15.4176 55.8466C14.5294 55.8466 13.7936 56.1979 13.2102 56.9006C12.6269 57.59 12.3551 58.75 12.3949 60.3807H5.17614Z" fill="white"/>
<path d="M5.17614 77.3807C5.08333 74.7557 5.36837 72.5085 6.03125 70.6392C6.69413 68.7699 7.7017 67.3381 9.05398 66.3438C10.4063 65.3494 12.0568 64.8523 14.0057 64.8523C15.2121 64.8523 16.3854 65.0975 17.5256 65.5881C18.6657 66.0786 19.965 66.9669 21.4233 68.2528C22.1259 68.8627 22.7292 69.3466 23.233 69.7045C23.7367 70.0625 24.3333 70.2415 25.0227 70.2415C25.8977 70.2415 26.6335 69.8902 27.2301 69.1875C27.8267 68.4716 28.0985 67.3116 28.0455 65.7074H35.2642C35.3703 68.3191 35.0786 70.5597 34.3892 72.429C33.6998 74.2983 32.6723 75.7367 31.3068 76.7443C29.9545 77.7386 28.3305 78.2358 26.4347 78.2358C25.1354 78.2358 23.9025 77.9706 22.7358 77.4403C21.5824 76.91 20.3163 76.0417 18.9375 74.8352C18.1686 74.1458 17.5521 73.642 17.0881 73.3239C16.6373 73.0057 16.0805 72.8466 15.4176 72.8466C14.5294 72.8466 13.7936 73.1979 13.2102 73.9006C12.6269 74.59 12.3551 75.75 12.3949 77.3807H5.17614Z" fill="white"/>
<path d="M43.0824 74V33.2727H70.8835V41.267H52.9261V49.6193H69.1136V57.6335H52.9261V74H43.0824ZM75.8402 74V33.2727H85.6839V66.0057H102.627V74H75.8402ZM144.577 53.6364C144.577 58.1174 143.716 61.9157 141.992 65.0312C140.269 68.1468 137.935 70.5133 134.992 72.1307C132.062 73.7481 128.774 74.5568 125.129 74.5568C121.469 74.5568 118.175 73.7415 115.245 72.1108C112.315 70.4801 109.988 68.1136 108.265 65.0114C106.555 61.8958 105.7 58.1042 105.7 53.6364C105.7 49.1553 106.555 45.357 108.265 42.2415C109.988 39.1259 112.315 36.7595 115.245 35.142C118.175 33.5246 121.469 32.7159 125.129 32.7159C128.774 32.7159 132.062 33.5246 134.992 35.142C137.935 36.7595 140.269 39.1259 141.992 42.2415C143.716 45.357 144.577 49.1553 144.577 53.6364ZM134.515 53.6364C134.515 50.9848 134.137 48.7443 133.381 46.9148C132.639 45.0852 131.565 43.6998 130.16 42.7585C128.768 41.8172 127.091 41.3466 125.129 41.3466C123.18 41.3466 121.503 41.8172 120.097 42.7585C118.692 43.6998 117.612 45.0852 116.856 46.9148C116.113 48.7443 115.742 50.9848 115.742 53.6364C115.742 56.2879 116.113 58.5284 116.856 60.358C117.612 62.1875 118.692 63.5729 120.097 64.5142C121.503 65.4555 123.18 65.9261 125.129 65.9261C127.091 65.9261 128.768 65.4555 130.16 64.5142C131.565 63.5729 132.639 62.1875 133.381 60.358C134.137 58.5284 134.515 56.2879 134.515 53.6364ZM158.065 74L146.213 33.2727H157.091L163.236 59.9602H163.574L170.594 33.2727H179.463L186.483 60.0199H186.821L192.986 33.2727H203.844L192.011 74H182.526L175.188 49.3011H174.869L167.531 74H158.065Z" fill="white"/>
</svg>
